<?xml version="1.0" encoding="iso-8859-1"?>
<!-- Uploaded to: SVG Repo, www.svgrepo.com, Generator: SVG Repo Mixer Tools -->
<svg height="800px" width="800px" version="1.1" id="Layer_1" xmlns="http://www.w3.org/2000/svg" xmlns:xlink="http://www.w3.org/1999/xlink" 
	 viewBox="0 0 512 512" xml:space="preserve">
<circle style="fill:#A8A8A8;" cx="256" cy="256" r="244.87"/>
<path style="fill:#EBEBEB;" d="M256,445.217c-104.334,0-189.217-84.883-189.217-189.217S151.666,66.783,256,66.783
	S445.217,151.666,445.217,256S360.334,445.217,256,445.217z"/>
<path style="fill:#FFAC3D;" d="M256.141,445.221c-0.045,0-0.1,0-0.145,0l0,0c-24.587,0-44.522-19.935-44.522-44.522l0,0
	c0-24.599,19.935-44.522,44.522-44.522l0,0c0.045,0,0.1,0,0.145,0l0,0c0.022,0,0.056,0,0.078,0l0,0
	c24.587-0.056,44.566,19.833,44.622,44.422l0,0c0.045,24.587-19.846,44.566-44.433,44.622l0,0c-0.033,0-0.067,0-0.1,0l0,0
	C256.253,445.221,256.197,445.221,256.141,445.221z M108.173,374.007c-15.36-19.2-12.243-47.215,6.968-62.575l0,0
	c19.2-15.349,47.215-12.232,62.575,6.979l0,0c15.349,19.2,12.232,47.215-6.968,62.564l0,0c-8.214,6.567-18.031,9.763-27.782,9.763
	l0,0C129.911,390.737,116.966,385.004,108.173,374.007z M341.523,380.798c-19.233-15.317-22.417-43.332-7.101-62.564l0,0
	c15.315-19.233,43.32-22.418,62.553-7.102l0,0c19.245,15.304,22.428,43.321,7.112,62.553l0,0
	c-8.793,11.054-21.76,16.796-34.861,16.796l0,0C359.51,390.48,349.715,387.319,341.523,380.798z M105.023,267.312
	c-23.975-5.454-39.001-29.306-33.547-53.281l0,0c5.454-23.987,29.306-39.001,53.293-33.548l0,0
	c23.975,5.454,38.99,29.306,33.536,53.281l0,0c-4.697,20.659-23.051,34.661-43.375,34.661l0,0
	C111.668,268.425,108.34,268.069,105.023,267.312z M353.644,233.553L353.644,233.553c-5.51-23.964,9.461-47.85,33.425-53.359l0,0
	c23.964-5.51,47.85,9.461,53.359,33.425l0,0l0,0l0,0c5.51,23.964-9.461,47.85-33.425,53.358l0,0
	c-3.35,0.768-6.701,1.136-10.006,1.136l0,0C376.717,268.113,358.374,254.167,353.644,233.553z M153.04,145.122
	c-10.73-22.127-1.48-48.764,20.647-59.481l0,0l0,0l0,0c22.127-10.73,48.751-1.48,59.481,20.647l0,0
	c10.719,22.116,1.48,48.752-20.647,59.481l0,0c-6.255,3.027-12.867,4.463-19.389,4.463l0,0
	C176.603,170.231,160.731,160.994,153.04,145.122z M299.272,165.669c-22.15-10.674-31.455-37.287-20.781-59.437l0,0
	c10.674-22.148,37.287-31.455,59.437-20.781l0,0c22.15,10.674,31.455,37.276,20.781,59.427l0,0
	c-7.669,15.928-23.574,25.209-40.136,25.209l0,0C312.083,170.088,305.505,168.662,299.272,165.669z"/>
<g>
	<path style="fill:#231F20;" d="M512,256c0-68.381-26.628-132.667-74.98-181.02C388.667,26.628,324.381,0,256,0
		C187.62,0,123.333,26.628,74.981,74.98C26.628,123.333,0,187.619,0,256c0,68.38,26.628,132.667,74.981,181.02S187.62,512,256,512
		s132.667-26.628,181.02-74.981C485.372,388.667,512,324.38,512,256z M256,489.739C127.116,489.739,22.261,384.884,22.261,256
		S127.116,22.261,256,22.261S489.739,127.116,489.739,256S384.884,489.739,256,489.739z"/>
	<path style="fill:#231F20;" d="M256,55.652C145.528,55.652,55.652,145.528,55.652,256S145.528,456.348,256,456.348
		S456.348,366.472,456.348,256S366.472,55.652,256,55.652z M256,434.087c-0.089,0-0.176-0.003-0.265-0.003
		c-18.292-0.141-33.131-15.061-33.131-33.385c0-18.412,14.979-33.391,33.391-33.391h0.248c0.026,0,0.051,0,0.078,0
		c8.889,0,17.252,3.454,23.555,9.727c6.321,6.293,9.814,14.671,9.834,23.584c0.033,18.253-14.658,33.156-32.918,33.457
		C256.528,434.078,256.265,434.087,256,434.087z M114.893,190.501c2.443,0,4.925,0.27,7.407,0.835
		c17.952,4.084,29.235,22.009,25.153,39.96c-3.48,15.307-16.855,25.997-32.522,25.997c-2.503,0-5.004-0.28-7.431-0.835
		c-0.001,0-0.003,0-0.006-0.001c-17.837-4.057-29.087-21.771-25.236-39.599c0.036-0.158,0.068-0.317,0.104-0.474
		C85.921,200.973,99.689,190.501,114.893,190.501z M161.557,114.754c2.901-8.354,8.858-15.09,16.786-18.994
		c0.091-0.045,0.181-0.091,0.273-0.136c4.655-2.244,9.58-3.309,14.433-3.309c12.402,0,24.337,6.936,30.102,18.827
		c8.002,16.51,1.125,36.441-15.315,44.524c-0.088,0.042-0.174,0.086-0.262,0.128c-4.568,2.193-9.426,3.307-14.444,3.307
		c-12.921,0-24.446-7.216-30.076-18.833c0-0.001,0-0.002-0.001-0.003C159.164,132.241,158.632,123.179,161.557,114.754z
		 M256,166.957c49.099,0,89.043,39.945,89.043,89.043S305.099,345.043,256,345.043S166.957,305.099,166.957,256
		S206.901,166.957,256,166.957z M287.079,136.58c-2.944-8.42-2.433-17.483,1.438-25.517c7.972-16.54,27.878-23.536,44.436-15.65
		c0.068,0.033,0.138,0.065,0.206,0.097c16.538,8.013,23.502,27.974,15.52,44.537c-5.531,11.486-17.349,18.907-30.108,18.907
		c-4.969,0-9.791-1.099-14.338-3.258c-0.07-0.033-0.14-0.066-0.209-0.099C296.029,151.722,290.013,144.972,287.079,136.58z
		 M429.579,216.105c0.002,0.009,0.003,0.018,0.006,0.026c1.991,8.685,0.483,17.625-4.248,25.178
		c-4.735,7.559-12.131,12.823-20.821,14.819c-2.471,0.568-5.001,0.855-7.519,0.855c-15.636,0-29.003-10.658-32.504-25.918
		c0-0.002,0-0.003-0.001-0.004c-4.125-17.94,7.122-35.892,25.071-40.018c2.505-0.577,5.032-0.86,7.541-0.86
		c6.193,0,12.277,1.735,17.655,5.106C422.315,200.019,427.578,207.413,429.579,216.105z M102.548,278.164
		c4.049,0.923,8.214,1.391,12.381,1.391c11.288,0,21.858-3.334,30.694-9.168c0.926,7.144,2.534,14.074,4.753,20.73
		c-14.551-1.965-29.842,1.752-42.187,11.621c-7.365,5.888-12.987,13.374-16.541,21.829c-7.66-18.293-12.354-38.124-13.471-58.891
		C84.92,271.625,93.181,276.033,102.548,278.164z M116.443,366.5c-5.27-6.87-7.649-15.358-6.688-23.988
		c0.987-8.864,5.368-16.814,12.336-22.386c6.142-4.91,13.5-7.294,20.813-7.294c9.758,0,19.43,4.251,26.015,12.407
		c0.061,0.077,0.125,0.154,0.186,0.232c11.398,14.377,9.032,35.347-5.308,46.811c-5.994,4.793-13.196,7.325-20.831,7.325
		c-9.939,0-19.211-4.345-25.58-11.934C117.072,367.281,116.755,366.894,116.443,366.5z M177.699,389.669
		c11.608-9.279,18.907-22.526,20.551-37.3c0.045-0.397,0.061-0.794,0.097-1.19c6.068,3.69,12.516,6.814,19.269,9.303
		c-10.624,10.139-17.271,24.408-17.271,40.218c0,9.622,2.472,18.669,6.791,26.571c-19.752-5.643-38.111-14.62-54.428-26.279
		C161.789,399.36,170.426,395.483,177.699,389.669z M295.582,361.258c-0.305-0.303-0.626-0.583-0.936-0.877
		c6.734-2.501,13.163-5.634,19.212-9.331c0.036,0.396,0.055,0.791,0.099,1.189c1.676,14.771,9.005,28.005,20.632,37.264
		c0,0.001,0,0.001,0,0.001c7.275,5.791,15.923,9.647,25.02,11.254c-16.296,11.697-34.638,20.715-54.379,26.401
		c4.303-7.91,6.758-16.964,6.741-26.587C311.937,385.708,306.117,371.746,295.582,361.258z M369.227,379.35
		c-7.623,0-14.806-2.511-20.772-7.259c-6.977-5.556-11.373-13.498-12.38-22.362c-0.997-8.777,1.455-17.415,6.898-24.355
		c0.141-0.177,0.285-0.351,0.425-0.528c5.542-6.788,13.365-11.069,22.086-12.06c8.865-1.006,17.581,1.499,24.562,7.058
		c6.979,5.55,11.378,13.487,12.385,22.349c0.983,8.644-1.384,17.149-6.658,24.039c-0.323,0.409-0.653,0.81-0.979,1.215
		C388.435,375.018,379.175,379.35,369.227,379.35z M420.497,324.21c-3.573-8.448-9.213-15.919-16.589-21.786
		c-11.628-9.258-26.164-13.43-40.935-11.757c-0.424,0.048-0.84,0.124-1.262,0.183c2.198-6.649,3.791-13.572,4.699-20.706
		c8.818,5.792,19.348,9.1,30.586,9.1c4.19,0,8.393-0.478,12.499-1.418c9.177-2.11,17.481-6.408,24.346-12.473
		C432.764,286.102,428.109,305.92,420.497,324.21z M411.855,169.921c-8.803-2.444-18.127-2.678-27.281-0.574
		c-15.432,3.548-27.864,13.246-35.363,25.896c-3.945-6.03-8.457-11.656-13.463-16.801c14.217-4.654,26.335-14.917,32.986-28.731
		c4.169-8.651,5.87-17.855,5.418-26.831C389.222,136.267,402.01,152.167,411.855,169.921z M286.05,80.462
		c-7.29,5.238-13.421,12.297-17.585,20.937c-6.453,13.391-7.305,28.495-2.399,42.528c0.15,0.431,0.328,0.847,0.49,1.272
		c-3.477-0.329-6.997-0.504-10.556-0.504c-3.66,0-7.277,0.183-10.848,0.53c5.166-13.774,4.937-29.544-1.97-43.795
		c-4.186-8.634-10.335-15.679-17.64-20.902c9.902-1.713,20.075-2.616,30.457-2.616C266.24,77.913,276.277,78.793,286.05,80.462z
		 M137.488,123.196c-0.425,9.148,1.43,18.311,5.537,26.782c6.682,13.786,18.825,24.022,33.048,28.644
		c-4.991,5.154-9.49,10.786-13.42,16.824c-7.526-12.634-19.979-22.304-35.418-25.817c-9.347-2.127-18.685-1.733-27.321,0.702
		C109.712,152.554,122.457,136.624,137.488,123.196z"/>
</g>
</svg>