<?xml version="1.0" encoding="iso-8859-1"?>
<!-- Uploaded to: SVG Repo, www.svgrepo.com, Generator: SVG Repo Mixer Tools -->
<svg fill="#000000" height="800px" width="800px" version="1.1" id="Layer_1" xmlns="http://www.w3.org/2000/svg" xmlns:xlink="http://www.w3.org/1999/xlink" 
	 viewBox="0 0 512 512" xml:space="preserve">
<g>
	<g>
		<path d="M405.29,0h-37.848c-4.355,0-7.885,3.529-7.885,7.885s3.53,7.885,7.885,7.885h37.848c13.044,0,23.655,10.612,23.655,23.655
			v433.15c0,13.043-10.611,23.655-23.655,23.655H106.71c-13.044,0-23.655-10.612-23.655-23.655v-56.772
			c0-4.356-3.53-7.885-7.885-7.885c-4.355,0-7.885,3.529-7.885,7.885v56.772c0,21.74,17.686,39.425,39.425,39.425H405.29
			c21.74,0,39.425-17.686,39.425-39.425V39.425C444.715,17.686,427.029,0,405.29,0z"/>
	</g>
</g>
<g>
	<g>
		<path d="M329.593,0H106.71c-21.74,0-39.425,17.686-39.425,39.425v336.427c0,4.356,3.53,7.885,7.885,7.885
			c4.355,0,7.885-3.529,7.885-7.885V39.425c0-13.043,10.611-23.655,23.655-23.655h222.883c4.355,0,7.885-3.529,7.885-7.885
			S333.949,0,329.593,0z"/>
	</g>
</g>
<g>
	<g>
		<path d="M374.801,35.745H137.199c-13.044,0-23.655,10.612-23.655,23.655v94.62c0,13.043,10.611,23.655,23.655,23.655h237.602
			c13.044,0,23.655-10.612,23.655-23.655V59.4C398.456,46.358,387.845,35.745,374.801,35.745z M310.669,60.977
			c-10.144,0-18.398,8.254-18.398,18.398v16.821c0,10.144,8.254,18.398,18.398,18.398h6.834v22.078h-21.552
			c-4.355,0-7.885,3.529-7.885,7.885c0,4.356,3.53,7.885,7.885,7.885h21.552v8.936c0,0.178,0.015,0.351,0.026,0.526h-180.33
			c-4.348,0-7.885-3.537-7.885-7.885V59.4c0-4.348,3.537-7.885,7.885-7.885h180.33c-0.012,0.175-0.026,0.348-0.026,0.526v8.936
			H310.669z M317.503,76.747v22.078h-6.834c-1.449,0-2.628-1.179-2.628-2.628V79.376c0-1.45,1.18-2.628,2.628-2.628H317.503z
			 M382.686,154.021c0,4.348-3.537,7.885-7.885,7.885h-41.554c0.012-0.175,0.026-0.348,0.026-0.526v-8.936h6.834
			c10.144,0,18.398-8.254,18.398-18.398v-16.821c0-10.144-8.254-18.398-18.398-18.398h-6.834V76.747h21.552
			c4.355,0,7.885-3.529,7.885-7.885s-3.53-7.885-7.885-7.885h-21.552v-8.936c0-0.178-0.015-0.351-0.026-0.526h41.554
			c4.348,0,7.885,3.537,7.885,7.885V154.021z M333.273,136.674v-22.078h6.834c1.449,0,2.628,1.179,2.628,2.628v16.821
			c0,1.45-1.18,2.628-2.628,2.628H333.273z"/>
	</g>
</g>
<g>
	<g>
		<path d="M172.945,195.548h-35.745c-13.044,0-23.655,10.612-23.655,23.655v35.562c0,13.043,10.611,23.655,23.655,23.655h35.745
			c13.044,0,23.655-10.612,23.655-23.655v-35.562C196.6,206.16,185.988,195.548,172.945,195.548z M180.83,254.766
			c0,4.348-3.537,7.885-7.885,7.885h-35.745c-4.348,0-7.885-3.537-7.885-7.885v-35.562c0-4.348,3.537-7.885,7.885-7.885h35.745
			c4.348,0,7.885,3.537,7.885,7.885V254.766z"/>
	</g>
</g>
<g>
	<g>
		<path d="M167.688,229.191h-4.731v-4.731c0-4.356-3.53-7.885-7.885-7.885c-4.355,0-7.885,3.529-7.885,7.885v4.731h-4.731
			c-4.355,0-7.885,3.529-7.885,7.885c0,4.356,3.53,7.885,7.885,7.885h4.731v4.731c0,4.356,3.53,7.885,7.885,7.885
			c4.355,0,7.885-3.529,7.885-7.885v-4.731h4.731c4.355,0,7.885-3.529,7.885-7.885C175.573,232.72,172.043,229.191,167.688,229.191z
			"/>
	</g>
</g>
<g>
	<g>
		<path d="M172.945,296.659h-35.745c-13.044,0-23.655,10.612-23.655,23.655v35.562c0,13.043,10.611,23.655,23.655,23.655h35.745
			c13.044,0,23.655-10.612,23.655-23.655v-35.562C196.6,307.271,185.988,296.659,172.945,296.659z M180.83,355.877
			c0,4.348-3.537,7.885-7.885,7.885h-35.745c-4.348,0-7.885-3.537-7.885-7.885v-35.562c0-4.348,3.537-7.885,7.885-7.885h35.745
			c4.348,0,7.885,3.537,7.885,7.885V355.877z"/>
	</g>
</g>
<g>
	<g>
		<path d="M166.223,338.004l3.345-3.345c3.079-3.079,3.079-8.071,0-11.151c-3.079-3.078-8.072-3.078-11.15,0l-3.345,3.345
			l-3.345-3.345c-3.079-3.078-8.072-3.078-11.15,0c-3.079,3.08-3.079,8.072,0,11.151l3.345,3.345l-3.345,3.345
			c-3.079,3.08-3.079,8.072,0,11.151c1.539,1.539,3.558,2.309,5.575,2.309c2.017,0,4.036-0.77,5.575-2.309l3.345-3.345l3.345,3.345
			c1.539,1.539,3.558,2.309,5.575,2.309s4.036-0.77,5.575-2.309c3.079-3.08,3.079-8.072,0-11.151L166.223,338.004z"/>
	</g>
</g>
<g>
	<g>
		<path d="M273.873,296.659h-35.745c-13.044,0-23.655,10.612-23.655,23.655v35.562c0,13.043,10.611,23.655,23.655,23.655h35.745
			c13.044,0,23.655-10.612,23.655-23.655v-35.562C297.528,307.271,286.917,296.659,273.873,296.659z M281.758,355.877
			c0,4.348-3.537,7.885-7.885,7.885h-35.745c-4.348,0-7.885-3.537-7.885-7.885v-35.562c0-4.348,3.537-7.885,7.885-7.885h35.745
			c4.348,0,7.885,3.537,7.885,7.885V355.877z"/>
	</g>
</g>
<g>
	<g>
		<path d="M271.006,323.507c-3.078-3.078-8.071-3.078-11.15,0l-17.842,17.842c-3.079,3.08-3.079,8.072,0,11.151
			c1.539,1.539,3.558,2.309,5.575,2.309c2.017,0,4.036-0.77,5.575-2.309l17.842-17.842
			C274.085,331.578,274.085,326.587,271.006,323.507z"/>
	</g>
</g>
<g>
	<g>
		<path d="M172.945,397.405h-35.745c-13.044,0-23.655,10.612-23.655,23.655v35.562c0,13.043,10.611,23.655,23.655,23.655h35.745
			c13.044,0,23.655-10.612,23.655-23.655V421.06C196.6,408.017,185.988,397.405,172.945,397.405z M180.83,456.622
			c0,4.348-3.537,7.885-7.885,7.885h-35.745c-4.348,0-7.885-3.537-7.885-7.885V421.06c0-4.348,3.537-7.885,7.885-7.885h35.745
			c4.348,0,7.885,3.537,7.885,7.885V456.622z"/>
	</g>
</g>
<g>
	<g>
		<path d="M169.027,425.487c-3.079-3.078-8.072-3.078-11.15,0l-17.842,17.842c-3.079,3.08-3.079,8.072,0,11.152
			c1.539,1.539,3.558,2.309,5.575,2.309c2.017,0,4.036-0.77,5.575-2.309l17.842-17.842
			C172.107,433.559,172.107,428.567,169.027,425.487z"/>
	</g>
</g>
<g>
	<g>
		<path d="M149.082,419.69c-3.079-3.078-8.072-3.078-11.15,0l-2.103,2.103c-3.079,3.08-3.079,8.072,0,11.151
			c1.539,1.539,3.558,2.309,5.575,2.309c2.018,0,4.036-0.77,5.575-2.309l2.103-2.103
			C152.162,427.761,152.162,422.769,149.082,419.69z"/>
	</g>
</g>
<g>
	<g>
		<path d="M174.314,444.921c-3.078-3.077-8.072-3.077-11.15,0l-2.103,2.103c-3.079,3.08-3.079,8.072,0,11.152
			c1.539,1.539,3.558,2.309,5.575,2.309c2.018,0,4.036-0.77,5.575-2.309l2.103-2.103C177.394,452.992,177.394,448,174.314,444.921z"
			/>
	</g>
</g>
<g>
	<g>
		<path d="M273.873,195.548h-35.745c-13.044,0-23.655,10.612-23.655,23.655v35.562c0,13.043,10.611,23.655,23.655,23.655h35.745
			c13.044,0,23.655-10.612,23.655-23.655v-35.562C297.528,206.16,286.917,195.548,273.873,195.548z M281.758,254.766
			c0,4.348-3.537,7.885-7.885,7.885h-35.745c-4.348,0-7.885-3.537-7.885-7.885v-35.562c0-4.348,3.537-7.885,7.885-7.885h35.745
			c4.348,0,7.885,3.537,7.885,7.885V254.766z"/>
	</g>
</g>
<g>
	<g>
		<path d="M268.616,230.242h-25.232c-4.355,0-7.885,3.529-7.885,7.885s3.53,7.885,7.885,7.885h25.232
			c4.355,0,7.885-3.529,7.885-7.885S272.971,230.242,268.616,230.242z"/>
	</g>
</g>
<g>
	<g>
		<path d="M374.801,195.548h-35.745c-13.044,0-23.655,10.612-23.655,23.655v136.674c0,13.043,10.611,23.655,23.655,23.655h35.745
			c13.044,0,23.655-10.612,23.655-23.655V219.203C398.456,206.16,387.845,195.548,374.801,195.548z M382.686,355.877
			c0,4.348-3.537,7.885-7.885,7.885h-35.745c-4.348,0-7.885-3.537-7.885-7.885V219.203c0-4.348,3.537-7.885,7.885-7.885h35.745
			c4.348,0,7.885,3.537,7.885,7.885V355.877z"/>
	</g>
</g>
<g>
	<g>
		<path d="M369.544,262.834h-25.232c-4.355,0-7.885,3.529-7.885,7.885c0,4.356,3.53,7.885,7.885,7.885h25.232
			c4.355,0,7.885-3.529,7.885-7.885C377.429,266.363,373.899,262.834,369.544,262.834z"/>
	</g>
</g>
<g>
	<g>
		<path d="M369.544,288.066h-25.232c-4.355,0-7.885,3.529-7.885,7.885c0,4.356,3.53,7.885,7.885,7.885h25.232
			c4.355,0,7.885-3.529,7.885-7.885C377.429,291.595,373.899,288.066,369.544,288.066z"/>
	</g>
</g>
<g>
	<g>
		<path d="M374.801,397.405h-35.745c-13.044,0-23.655,10.612-23.655,23.655v35.562c0,13.043,10.611,23.655,23.655,23.655h35.745
			c13.044,0,23.655-10.612,23.655-23.655V421.06C398.456,408.017,387.845,397.405,374.801,397.405z M382.686,456.622
			c0,4.348-3.537,7.885-7.885,7.885h-35.745c-4.348,0-7.885-3.537-7.885-7.885V421.06c0-4.348,3.537-7.885,7.885-7.885h35.745
			c4.348,0,7.885,3.537,7.885,7.885V456.622z"/>
	</g>
</g>
<g>
	<g>
		<path d="M361.983,444.156c-1.082,1.038-2.503,1.61-4.004,1.61c-3.189,0-5.782-2.594-5.782-5.782c0-3.189,2.594-5.782,5.782-5.782
			c1.5,0,2.922,0.572,4.002,1.61c3.142,3.014,8.134,2.913,11.148-0.229c3.016-3.141,2.913-8.132-0.228-11.148
			c-4.033-3.871-9.333-6.002-14.924-6.002c-11.884,0-21.552,9.668-21.552,21.552s9.668,21.552,21.552,21.552
			c5.589,0,10.889-2.131,14.922-6c3.142-3.015,3.245-8.006,0.231-11.148C370.116,441.245,365.124,441.142,361.983,444.156z"/>
	</g>
</g>
<g>
	<g>
		<path d="M273.873,397.405h-35.745c-13.044,0-23.655,10.612-23.655,23.655v35.562c0,13.043,10.611,23.655,23.655,23.655h35.745
			c13.044,0,23.655-10.612,23.655-23.655V421.06C297.528,408.017,286.917,397.405,273.873,397.405z M281.758,456.622
			c0,4.348-3.537,7.885-7.885,7.885h-35.745c-4.348,0-7.885-3.537-7.885-7.885V421.06c0-4.348,3.537-7.885,7.885-7.885h35.745
			c4.348,0,7.885,3.537,7.885,7.885V456.622z"/>
	</g>
</g>
<g>
	<g>
		<path d="M256,428.945c-4.355,0-7.885,3.529-7.885,7.885v2.103c0,4.356,3.53,7.885,7.885,7.885s7.885-3.529,7.885-7.885v-2.103
			C263.885,432.474,260.355,428.945,256,428.945z"/>
	</g>
</g>
</svg>