<svg width="871" height="154" viewBox="0 0 871 154" fill="none" xmlns="http://www.w3.org/2000/svg">
<g clip-path="url(#clip0_42_2)">
<path d="M227.067 130.717C215.139 146.425 201.38 153.298 193.331 153.298C186.512 153.298 183.982 147.006 187.355 130.475C188.488 125.078 189.259 121.52 190.175 117.454C182.391 127.886 174.921 136.114 165.114 144.174C160.246 148.07 152.149 153.298 144.221 153.298C136.293 153.298 128.317 148.458 134.197 122.827C137.209 110.048 140.703 96.0836 144.27 80.6425C145.667 75.0033 145.595 72.9703 143.788 72.9703C141.619 72.9703 135.113 77.6656 130.558 82.2398L127.474 76.0198C139.185 63.2167 154.174 55.1089 161.788 55.1089C168.608 55.1089 170.319 61.2321 166.005 79.7954C162.848 92.7437 159.21 106.418 156.125 120.77C153.523 131.952 154.921 135.679 158.439 135.679C164.824 135.679 174.897 126.24 183.403 114.574C188.464 107.531 193.115 99.3267 196.392 86.7657C198.054 80.2794 200.03 71.0825 202.103 60.7965C208.079 59.1265 216.344 56.8031 222.537 55.0363H225.26C219.645 77.2783 212.151 108.233 209.019 126.748C208.248 132.073 208.464 134.323 210.079 134.323C211.838 134.323 216.32 132.339 223.525 124.667L227.092 130.693L227.067 130.717Z" fill="#112868"/>
<path d="M239.14 76.0924C250.321 63.2409 262.394 55.1089 270.924 55.1089C278.322 55.1089 279.889 64.9109 275.214 85.0715L274.081 90.0814C284.877 71.1067 298.251 55.1089 307.865 55.1089C314.131 55.1089 318.733 60.4092 318.733 65.8306C318.733 71.8328 313.384 79.5291 308.926 82.4576C306.757 83.8614 305.094 83.8614 303.889 82.4576C300.901 79.2387 298.251 76.2134 295.6 76.2134C289.961 76.2134 279.407 93.9054 276.226 100.077C270.394 111.428 266.466 131.371 262.948 148.869C256.153 149.716 247.598 151.604 241.911 153.347L240.297 151.604C245.478 130.983 251.984 102.788 254.924 87.5401C257.502 75.0517 256.876 73.2849 255.261 73.2849C253.43 73.2849 247.791 76.7943 242.176 82.2882L239.092 76.0682L239.14 76.0924Z" fill="#112868"/>
<path d="M413.603 130.378C402.639 144.827 388.133 153.371 380.205 153.371C373.65 153.371 370.445 147.707 374.229 128.103L376.205 118.229C368.301 130.136 358.421 139.575 352.662 143.932C345.529 149.692 338.806 153.371 331.745 153.371C323.456 153.371 316.805 144.73 316.805 127.644C316.805 107.435 325.287 85.9186 339.963 72.3168C351.288 62.055 367.337 55.1331 382.349 55.1331C393.723 55.1331 405.435 58.4246 409.965 58.8603C405.916 74.1804 398.832 106.37 395.531 126.07C394.615 131.564 394.904 134.299 396.591 134.299C398.976 134.299 403.651 131.274 410.254 124.449L413.603 130.403V130.378ZM371.409 113.171C375.337 107.822 379.289 99.8834 381.386 91.4367C383.337 83.0143 385.651 73.3817 386.398 67.912C383.458 66.2904 376.952 64.8141 372.084 64.8141C350.879 64.8141 340.685 98.7701 340.975 122.876C340.975 131.298 343.288 135.558 346.662 135.558C351.939 135.558 360.084 129.289 371.385 113.171H371.409Z" fill="#112868"/>
<path d="M430.929 150.829V0H533.897V25.5093H461.268V61.2079H523.969V86.7173H461.268V150.829H430.954H430.929Z" fill="#315EDF"/>
<path d="M548.21 150.829V0H577.006V150.829H548.21Z" fill="#315EDF"/>
<path d="M593.537 94.6556C593.537 85.0473 595.899 75.7536 600.598 66.7745C605.321 57.7954 611.996 50.9219 620.622 46.2024C629.249 41.4587 638.912 39.1111 649.563 39.1111C666.021 39.1111 679.516 44.484 690.022 55.2057C700.528 65.9516 705.806 79.5049 705.806 95.89C705.806 112.275 700.504 126.119 689.878 136.986C679.251 147.853 665.877 153.298 649.78 153.298C639.804 153.298 630.309 151.023 621.249 146.497C612.188 141.971 605.321 135.34 600.598 126.579C595.875 117.842 593.537 107.192 593.537 94.6314V94.6556ZM623.032 96.2046C623.032 107.047 625.586 115.349 630.719 121.109C635.852 126.869 642.165 129.749 649.683 129.749C657.202 129.749 663.491 126.869 668.576 121.109C673.66 115.349 676.214 106.975 676.214 96.011C676.214 85.0473 673.66 77.0847 668.576 71.3245C663.491 65.5643 657.178 62.6842 649.683 62.6842C642.189 62.6842 635.852 65.5643 630.719 71.3245C625.61 77.0847 623.032 85.3861 623.032 96.2288V96.2046Z" fill="#315EDF"/>
<path d="M742.337 150.829L707.926 41.5555H735.903L756.289 113.17L775.037 41.5555H802.797L820.918 113.17L841.714 41.5555H870.1L835.159 150.829H807.496L788.748 80.5456L770.314 150.829H742.337Z" fill="#315EDF"/>
<path d="M113.428 119.018C109.972 128.941 102.45 145.461 98.7901 149.93C92.4876 151.287 80.086 154 65.0413 154C28.0397 154 1 133.995 1 98.029C1 50.9698 40.8479 22 85.9818 22C104.483 22 116.071 25.5115 124 26.8682C122.374 35.0351 120.34 48.6554 119.121 60.3071L111.802 60.8924C110.175 38.7328 102.043 30.3797 84.1521 30.3797C55.4859 30.3797 31.0893 59.5357 31.0893 99.1995C31.0893 129.526 46.1339 145.274 66.0579 145.274C81.7124 145.274 93.0975 137.693 106.719 116.491L113.428 119.018Z" fill="#112868"/>
</g>
<defs>
<clipPath id="clip0_42_2">
<rect width="870.1" height="154" fill="white"/>
</clipPath>
</defs>
</svg>
